<?xml version="1.0" encoding="UTF-8" standalone="no"?>
<svg
   xmlns:dc="http://purl.org/dc/elements/1.1/"
   xmlns:cc="http://creativecommons.org/ns#"
   xmlns:rdf="http://www.w3.org/1999/02/22-rdf-syntax-ns#"
   xmlns:svg="http://www.w3.org/2000/svg"
   xmlns="http://www.w3.org/2000/svg"
   xmlns:sodipodi="http://sodipodi.sourceforge.net/DTD/sodipodi-0.dtd"
   xmlns:inkscape="http://www.inkscape.org/namespaces/inkscape"
   version="1.2"
   width="810"
   height="810"
   id="svg8"
   sodipodi:docname="wikidata-sync.svg"
   inkscape:version="0.92.3 (2405546, 2018-03-11)">
  <metadata
     id="metadata14">
    <rdf:RDF>
      <cc:Work
         rdf:about="">
        <dc:format>image/svg+xml</dc:format>
        <dc:type
           rdf:resource="http://purl.org/dc/dcmitype/StillImage" />
        <dc:title></dc:title>
      </cc:Work>
    </rdf:RDF>
  </metadata>
  <defs
     id="defs12">
    <filter
       style="color-interpolation-filters:sRGB;"
       inkscape:label="Drop Shadow"
       id="filter1110">
      <feFlood
         flood-opacity="0.498039"
         flood-color="rgb(0,0,0)"
         result="flood"
         id="feFlood1100" />
      <feComposite
         in="flood"
         in2="SourceGraphic"
         operator="in"
         result="composite1"
         id="feComposite1102" />
      <feGaussianBlur
         in="composite1"
         stdDeviation="1"
         result="blur"
         id="feGaussianBlur1104" />
      <feOffset
         dx="1"
         dy="1"
         result="offset"
         id="feOffset1106" />
      <feComposite
         in="SourceGraphic"
         in2="offset"
         operator="over"
         result="composite2"
         id="feComposite1108" />
    </filter>
    <filter
       style="color-interpolation-filters:sRGB;"
       inkscape:label="Drop Shadow"
       id="filter1812">
      <feFlood
         flood-opacity="0.498039"
         flood-color="rgb(0,0,0)"
         result="flood"
         id="feFlood1802" />
      <feComposite
         in="flood"
         in2="SourceGraphic"
         operator="in"
         result="composite1"
         id="feComposite1804" />
      <feGaussianBlur
         in="composite1"
         stdDeviation="1"
         result="blur"
         id="feGaussianBlur1806" />
      <feOffset
         dx="1"
         dy="1"
         result="offset"
         id="feOffset1808" />
      <feComposite
         in="SourceGraphic"
         in2="offset"
         operator="over"
         result="composite2"
         id="feComposite1810" />
    </filter>
    <filter
       style="color-interpolation-filters:sRGB;"
       inkscape:label="Drop Shadow"
       id="filter1897">
      <feFlood
         flood-opacity="0.498039"
         flood-color="rgb(0,0,0)"
         result="flood"
         id="feFlood1887" />
      <feComposite
         in="flood"
         in2="SourceGraphic"
         operator="in"
         result="composite1"
         id="feComposite1889" />
      <feGaussianBlur
         in="composite1"
         stdDeviation="1"
         result="blur"
         id="feGaussianBlur1891" />
      <feOffset
         dx="1"
         dy="1"
         result="offset"
         id="feOffset1893" />
      <feComposite
         in="SourceGraphic"
         in2="offset"
         operator="over"
         result="composite2"
         id="feComposite1895" />
    </filter>
    <filter
       style="color-interpolation-filters:sRGB;"
       inkscape:label="Drop Shadow"
       id="filter1909">
      <feFlood
         flood-opacity="0.498039"
         flood-color="rgb(0,0,0)"
         result="flood"
         id="feFlood1899" />
      <feComposite
         in="flood"
         in2="SourceGraphic"
         operator="in"
         result="composite1"
         id="feComposite1901" />
      <feGaussianBlur
         in="composite1"
         stdDeviation="1"
         result="blur"
         id="feGaussianBlur1903" />
      <feOffset
         dx="1"
         dy="1"
         result="offset"
         id="feOffset1905" />
      <feComposite
         in="SourceGraphic"
         in2="offset"
         operator="over"
         result="composite2"
         id="feComposite1907" />
    </filter>
  </defs>
  <sodipodi:namedview
     pagecolor="#ffffff"
     bordercolor="#666666"
     borderopacity="1"
     objecttolerance="10"
     gridtolerance="10"
     guidetolerance="10"
     inkscape:pageopacity="0"
     inkscape:pageshadow="2"
     inkscape:window-width="1280"
     inkscape:window-height="998"
     id="namedview10"
     showgrid="false"
     fit-margin-top="0"
     fit-margin-left="0"
     fit-margin-right="0"
     fit-margin-bottom="0"
     inkscape:zoom="0.30380952"
     inkscape:cx="121.85414"
     inkscape:cy="151.48899"
     inkscape:window-x="1920"
     inkscape:window-y="0"
     inkscape:window-maximized="1"
     inkscape:current-layer="svg8" />
  <path
     d="M 0,655 H 30 V 155 H 0 Z m 60,0 h 90 V 155 H 60 Z M 180,155 v 500 h 90 V 155 Z"
     style="fill:#990000;opacity:0.3"
     id="path2"
     inkscape:connector-curvature="0" />
  <path
     d="m 720,655 h 30 V 155 h -30 z m 60,-500 v 500 h 30 V 155 Z M 300,655 h 30 V 155 h -30 z m 60,-500 v 500 h 30 V 155 Z"
     style="fill:#339966;opacity:0.3"
     id="path4"
     inkscape:connector-curvature="0" />
  <path
     d="m 420,655 h 90 V 155 h -90 z m 120,0 h 30 V 155 h -30 z m 60,-500 v 500 h 90 V 155 Z"
     style="fill:#006699;opacity:0.3"
     id="path6"
     inkscape:connector-curvature="0" />
  <g
     id="g1844"
     transform="matrix(21.100664,0,0,21.100664,-38294.442,-32300.746)"
     style="filter:url(#filter1909)">
    <path
       style="fill:#97ca90"
       d="m 1827.5754,1562.1795 -3.969,-4.0776 4.219,-4.219 c 3.7753,-3.7753 4.2189,-3.9839 4.2189,-1.9836 0,1.8891 0.5435,2.2353 3.5098,2.2353 2.2723,0 4.1136,-0.7052 5.2222,-2 1.1515,-1.3449 2.95,-2 5.4902,-2 4.2754,0 4.7398,1.239 2.2609,6.0327 -1.9682,3.8061 -6.265,5.9673 -11.8639,5.9673 -3.7544,0 -4.5319,0.3339 -4.7996,2.0612 -0.2845,1.8348 -0.7556,1.6133 -4.2885,-2.0163 z m -9.5311,-13.6406 c 0,-2.5737 3.0511,-7.0032 6.0398,-8.7688 1.5228,-0.8995 4.8369,-1.6355 7.3645,-1.6355 4.0903,0 4.5957,-0.2458 4.5957,-2.2353 0,-1.9989 0.4479,-1.7874 4.2353,2 l 4.2353,4.2353 -4.2353,4.2353 c -3.7874,3.7874 -4.2353,3.9989 -4.2353,2 0,-1.8891 -0.5435,-2.2353 -3.5098,-2.2353 -2.2723,0 -4.1136,0.7052 -5.2222,2 -2.1883,2.5557 -9.268,2.8645 -9.268,0.4043 z"
       id="path1858"
       inkscape:connector-curvature="0" />
    <path
       style="fill:#82c27c"
       d="m 1828.0798,1561.6797 -3.4644,-3.5828 3.7144,-3.7145 c 2.762,-2.762 3.7145,-3.27 3.7145,-1.9811 0,2.6479 7.548,2.4299 9.2321,-0.2667 0.8993,-1.44 2.332,-2 5.1169,-2 3.7192,0 3.8414,0.1057 3.1815,2.75 -1.3652,5.4701 -6.844,9.25 -13.4075,9.25 -2.8024,0 -4.0718,0.4618 -4.2997,1.564 -0.2408,1.1648 -1.2076,0.6495 -3.7878,-2.0189 z m 1.4645,-5.5451 c 0.9955,-1.1 1.585,-2 1.31,-2 -0.275,0 -1.3145,0.9 -2.31,2 -0.9955,1.1 -1.585,2 -1.31,2 0.275,0 1.3145,-0.9 2.31,-2 z m -11.4963,-7.25 c 0.01,-2.4239 3.9437,-7.6714 6.9024,-9.2015 1.647,-0.8517 4.8169,-1.5485 7.0442,-1.5485 3.1754,0 4.0497,-0.3742 4.0497,-1.7333 0,-1.2873 0.9607,-0.7727 3.7333,2 l 3.7334,3.7333 -3.7334,3.7333 c -2.7726,2.7727 -3.7333,3.2873 -3.7333,2 0,-2.6479 -7.548,-2.4299 -9.2321,0.2667 -1.4402,2.3062 -8.7707,2.9335 -8.7642,0.75 z m 6.9963,-2.75 c 2.322,-2.322 12,-2.9493 12,-0.7778 0,0.6722 1,0.2222 2.2222,-1 l 2.2222,-2.2222 -2.2222,-2.2222 c -1.2222,-1.2222 -2.2222,-1.6722 -2.2222,-1 0,0.7513 -1.4835,1.2222 -3.8508,1.2222 -5.7754,0 -10.022,1.8533 -11.7053,5.1084 -1.3334,2.5787 -1.3301,2.8916 0.03,2.8916 0.8391,0 2.4257,-0.9 3.5257,-2 z"
       id="path1856"
       inkscape:connector-curvature="0" />
    <path
       style="fill:#58a44f"
       d="m 1828.0798,1561.6797 -3.4644,-3.5828 3.7144,-3.7145 c 2.762,-2.762 3.7145,-3.27 3.7145,-1.9811 0,2.6479 7.548,2.4299 9.2321,-0.2667 0.8892,-1.4238 2.332,-2 5.0084,-2 4.1689,0 4.4775,0.7109 2.211,5.0939 -2.1104,4.0809 -7.06,6.8978 -12.1282,6.9024 -2.982,0 -4.2691,0.4511 -4.5,1.5677 -0.2408,1.1648 -1.2076,0.6495 -3.7878,-2.0189 z m 8.9051,-1.7775 c 4.5926,-0.4311 5.9105,-1.0365 8.4548,-3.8841 2.6198,-2.9321 2.7795,-3.4187 1.2202,-3.719 -0.9867,-0.19 -2.7954,0.5952 -4.0193,1.745 -2.542,2.3881 -11.5963,3.066 -11.5963,0.8683 0,-0.6722 -0.9841,-0.2381 -2.1869,0.9647 -2.1393,2.1392 -2.1463,2.2318 -0.3237,4.2458 1.0249,1.1325 2.1215,1.6609 2.437,1.1744 0.3155,-0.4865 3.0219,-1.1143 6.0142,-1.3951 z m -17.9011,-12.9054 c 0.495,-1.7258 1.656,-3.9733 2.5801,-4.9944 1.841,-2.0342 7.3193,-3.8535 11.6304,-3.8622 1.9402,0 2.75,-0.516 2.75,-1.7389 0,-1.2873 0.9607,-0.7727 3.7333,2 l 3.7334,3.7333 -3.7334,3.7333 c -2.7726,2.7727 -3.7333,3.2873 -3.7333,2 0,-2.6479 -7.548,-2.4299 -9.2321,0.2667 -0.8824,1.4129 -2.332,2 -4.9386,2 -3.6602,0 -3.6825,-0.025 -2.7898,-3.1378 z m 6.6876,-0.8622 c 3.322,-2.613 11.2729,-2.8427 11.2729,-0.3257 0,1.392 0.4159,1.2836 2.4664,-0.6428 l 2.4665,-2.3171 -2.2049,-3.0963 c -1.7639,-2.4773 -2.2718,-2.7487 -2.5397,-1.3573 -0.2698,1.401 -1.4051,1.7392 -5.8385,1.7392 -4.7496,0 -5.9041,0.4005 -8.4267,2.9231 -1.6077,1.6077 -2.9231,3.4077 -2.9231,4 0,1.7247 2.9694,1.2461 5.7271,-0.9231 z"
       id="path1854"
       inkscape:connector-curvature="0" />
    <path
       style="fill:#4e9546"
       d="m 1828.0798,1561.6797 -3.4644,-3.5828 3.7144,-3.7145 c 2.762,-2.762 3.7145,-3.27 3.7145,-1.9811 0,2.6479 7.548,2.4299 9.2321,-0.2667 0.8955,-1.434 2.332,-2 5.0758,-2 3.5009,0 3.7697,0.1917 3.1554,2.25 -1.8502,6.1991 -6.8971,9.75 -13.8579,9.75 -2.3329,0 -3.564,0.5091 -3.7821,1.564 -0.2408,1.1648 -1.2076,0.6495 -3.7878,-2.0189 z m 7.5875,-1.5451 c 6.3059,0 12.377,-3.6466 12.377,-7.4343 0,-1.2743 -3.3504,-0.4353 -5.7271,1.4343 -3.3688,2.6499 -11.2729,2.8411 -11.2729,0.2727 0,-1.3962 -0.5175,-1.2097 -2.7,0.9727 l -2.6999,2.7 2.4499,2.6148 c 1.9556,2.0872 2.5152,2.2945 2.7733,1.0273 0.2374,-1.1654 1.5135,-1.5875 4.7997,-1.5875 z m 0.377,-12.2667 c 0,-1.1928 -0.7979,-1.7333 -2.559,-1.7333 -1.4514,0 -2.2915,-0.4328 -1.941,-1 1.0884,-1.761 5.5,-1.1777 5.5,0.7273 0,1.3978 0.5129,1.2144 2.6893,-0.9621 2.6687,-2.6686 2.6747,-2.7069 0.7871,-4.9773 l -1.9022,-2.2879 2.4407,2.2556 2.4407,2.2555 -3.7278,3.7278 c -2.7695,2.7695 -3.7278,3.2822 -3.7278,1.9944 z"
       id="path1852"
       inkscape:connector-curvature="0" />
    <path
       style="fill:#43893c"
       d="m 1828.5443,1561.9618 c -2.7694,-3.0647 -2.7886,-3.1338 -0.25,-0.8993 2.2745,2.0022 2.75,2.1312 2.75,0.7464 0,-1.3656 1.0283,-1.6743 5.5769,-1.6743 4.8307,0 5.9681,-0.3912 8.5,-2.9231 1.6077,-1.6077 2.9231,-3.4077 2.9231,-4 0,-1.7999 -3.8728,-1.2041 -6,0.9231 -2.3236,2.3236 -10.9995,2.9151 -11.0006,0.75 -5e-4,-0.8818 1.4921,-1.1466 5.0672,-0.899 4.461,0.3091 5.1336,0.1 5.6172,-1.75 0.4371,-1.6713 1.3293,-2.101 4.363,-2.101 3.7991,0 3.8102,0.012 2.9137,3.1378 -0.495,1.7258 -1.656,3.9733 -2.5801,4.9944 -1.8288,2.0208 -7.3125,3.8534 -11.5571,3.8622 -1.628,0 -2.8033,0.6221 -3,1.5791 -0.2425,1.1802 -1.0733,0.7436 -3.3233,-1.7463 z m 10.5,-16.3272 c 1.8658,-1.925 3.6173,-3.5 3.8923,-3.5 0.275,0 -1.0265,1.575 -2.8923,3.5 -1.8658,1.925 -3.6173,3.5 -3.8923,3.5 -0.275,0 1.0265,-1.575 2.8923,-3.5 z"
       id="path1850"
       inkscape:connector-curvature="0" />
    <path
       style="fill:#3c8136"
       d="m 1830.0443,1563.5984 c -0.8618,-1.0615 -0.9681,-1.5282 -0.25,-1.0967 0.7866,0.4725 1.25,0.173 1.25,-0.8081 0,-1.2256 1.1925,-1.559 5.5769,-1.559 4.8307,0 5.9681,-0.3912 8.5,-2.9231 1.6077,-1.6077 2.9231,-3.4077 2.9231,-4 0,-1.5893 -4.1012,-1.309 -5.3898,0.3684 -1.38,1.7965 -7.2556,3.408 -6.2003,1.7005 0.3895,-0.6302 1.6237,-1.1458 2.7427,-1.1458 1.1936,0 2.2508,-0.8267 2.5577,-2 0.4076,-1.5589 1.364,-2 4.3365,-2 3.7991,0 3.8102,0.012 2.9137,3.1378 -0.495,1.7258 -1.656,3.9733 -2.5801,4.9944 -1.8288,2.0208 -7.3125,3.8534 -11.5571,3.8622 -1.6913,0 -2.7957,0.6151 -3,1.6613 -0.2901,1.4857 -0.4774,1.4659 -1.8233,-0.1919 z"
       id="path1848"
       inkscape:connector-curvature="0" />
    <path
       style="fill:#367930"
       d="m 1835.4469,1561.2921 c 0.3935,-0.6366 2.0044,-1.1575 3.5797,-1.1575 3.1294,0 9.0177,-4.3023 9.0177,-6.5889 0,-0.7761 -0.7016,-1.4111 -1.559,-1.4111 -0.8575,0 -1.2809,-0.45 -0.941,-1 1.1984,-1.939 3.5,-1.0221 3.5,1.3942 0,2.8874 -5.0713,8.6004 -7.6512,8.6195 -1.0168,0.01 -2.9317,0.3034 -4.2552,0.6575 -1.6871,0.4514 -2.1925,0.2979 -1.691,-0.5137 z"
       id="path1846"
       inkscape:connector-curvature="0" />
  </g>
</svg>
