<?xml version="1.0" encoding="UTF-8" standalone="no"?>
<svg
   xmlns:dc="http://purl.org/dc/elements/1.1/"
   xmlns:cc="http://creativecommons.org/ns#"
   xmlns:rdf="http://www.w3.org/1999/02/22-rdf-syntax-ns#"
   xmlns:svg="http://www.w3.org/2000/svg"
   xmlns="http://www.w3.org/2000/svg"
   xmlns:sodipodi="http://sodipodi.sourceforge.net/DTD/sodipodi-0.dtd"
   xmlns:inkscape="http://www.inkscape.org/namespaces/inkscape"
   version="1.2"
   width="810"
   height="810"
   id="svg8"
   sodipodi:docname="wikidata-tick.svg"
   inkscape:version="0.92.3 (2405546, 2018-03-11)">
  <metadata
     id="metadata14">
    <rdf:RDF>
      <cc:Work
         rdf:about="">
        <dc:format>image/svg+xml</dc:format>
        <dc:type
           rdf:resource="http://purl.org/dc/dcmitype/StillImage" />
        <dc:title></dc:title>
      </cc:Work>
    </rdf:RDF>
  </metadata>
  <defs
     id="defs12">
    <filter
       style="color-interpolation-filters:sRGB;"
       inkscape:label="Drop Shadow"
       id="filter1110">
      <feFlood
         flood-opacity="0.498039"
         flood-color="rgb(0,0,0)"
         result="flood"
         id="feFlood1100" />
      <feComposite
         in="flood"
         in2="SourceGraphic"
         operator="in"
         result="composite1"
         id="feComposite1102" />
      <feGaussianBlur
         in="composite1"
         stdDeviation="1"
         result="blur"
         id="feGaussianBlur1104" />
      <feOffset
         dx="1"
         dy="1"
         result="offset"
         id="feOffset1106" />
      <feComposite
         in="SourceGraphic"
         in2="offset"
         operator="over"
         result="composite2"
         id="feComposite1108" />
    </filter>
  </defs>
  <sodipodi:namedview
     pagecolor="#ffffff"
     bordercolor="#666666"
     borderopacity="1"
     objecttolerance="10"
     gridtolerance="10"
     guidetolerance="10"
     inkscape:pageopacity="0"
     inkscape:pageshadow="2"
     inkscape:window-width="1280"
     inkscape:window-height="998"
     id="namedview10"
     showgrid="false"
     fit-margin-top="0"
     fit-margin-left="0"
     fit-margin-right="0"
     fit-margin-bottom="0"
     inkscape:zoom="0.42965155"
     inkscape:cx="229.69233"
     inkscape:cy="301.73643"
     inkscape:window-x="1920"
     inkscape:window-y="0"
     inkscape:window-maximized="1"
     inkscape:current-layer="svg8" />
  <path
     d="M 0,655 H 30 V 155 H 0 Z m 60,0 h 90 V 155 H 60 Z M 180,155 v 500 h 90 V 155 Z"
     style="fill:#990000;opacity:0.3"
     id="path2"
     inkscape:connector-curvature="0" />
  <path
     d="m 720,655 h 30 V 155 h -30 z m 60,-500 v 500 h 30 V 155 Z M 300,655 h 30 V 155 h -30 z m 60,-500 v 500 h 30 V 155 Z"
     style="fill:#339966;opacity:0.3"
     id="path4"
     inkscape:connector-curvature="0" />
  <path
     d="m 420,655 h 90 V 155 h -90 z m 120,0 h 30 V 155 h -30 z m 60,-500 v 500 h 90 V 155 Z"
     style="fill:#006699;opacity:0.3"
     id="path6"
     inkscape:connector-curvature="0" />
  <g
     id="g868"
     transform="matrix(21.844257,0,0,23.269975,-4933.5471,-24775.172)"
     style="filter:url(#filter1110)">
    <path
       style="fill:#a8cca4"
       d="m 234.37841,1088.8079 -5.43736,-5.5057 2.701,-2.701 2.701,-2.701 3.03902,2.9116 3.03903,2.9115 6.98355,-6.93 6.98355,-6.93 2.72671,2.7267 2.72671,2.7267 -9.45902,9.4985 c -5.20245,5.2242 -9.70827,9.4985 -10.01292,9.4985 -0.30465,0 -3.00072,-2.4776 -5.99127,-5.5058 z"
       id="path882"
       inkscape:connector-curvature="0" />
    <path
       style="fill:#87cb7b"
       d="m 234.87922,1088.3088 -4.92969,-5.005 2.19934,-2.1993 2.19934,-2.1994 3.03644,2.9091 3.03645,2.9091 6.98101,-6.9275 6.98102,-6.9275 2.22617,2.2262 2.22618,2.2261 -8.95485,8.9966 c -4.92516,4.9481 -9.20614,8.9965 -9.51328,8.9965 -0.30715,0 -2.7768,-2.2522 -5.48813,-5.0049 z"
       id="path880"
       inkscape:connector-curvature="0" />
    <path
       style="fill:#6cb361"
       d="m 234.87922,1088.3088 -4.92969,-5.005 2.19934,-2.1993 2.19934,-2.1994 3.03644,2.9091 3.03645,2.9091 6.98101,-6.9275 6.98102,-6.9275 2.22617,2.2262 2.22618,2.2261 -8.95485,8.9966 c -4.92516,4.9481 -9.20614,8.9965 -9.51328,8.9965 -0.30715,0 -2.7768,-2.2522 -5.48813,-5.0049 z m 13.47581,-5.4658 c 4.08149,-4.109 7.09497,-7.7967 6.69661,-8.1951 -0.39835,-0.3983 -3.85319,2.3807 -7.67741,6.1756 l -6.95313,6.8998 -3.00808,-2.8819 c -4.21929,-4.0423 -5.12976,-2.2587 -1.01441,1.9873 1.8578,1.9167 3.6383,3.485 3.95667,3.485 0.31838,0 3.91826,-3.3618 7.99975,-7.4707 z"
       id="path878"
       inkscape:connector-curvature="0" />
    <path
       style="fill:#68af5e"
       d="m 234.87922,1088.3088 -4.92969,-5.005 2.19934,-2.1993 2.19934,-2.1994 3.03644,2.9091 3.03645,2.9091 6.98101,-6.9275 6.98102,-6.9275 2.22617,2.2262 2.22618,2.2261 -8.95485,8.9966 c -4.92516,4.9481 -9.20614,8.9965 -9.51328,8.9965 -0.30715,0 -2.7768,-2.2522 -5.48813,-5.0049 z m 13.84307,-5.624 c 5.80401,-5.6738 7.51236,-7.9162 6.66601,-8.75 -0.84475,-0.8322 -2.48339,0.2962 -6.35897,4.3789 -8.3815,8.8294 -8.23936,8.763 -11.68799,5.459 -2.38085,-2.281 -3.21723,-2.5962 -4.21384,-1.5884 -0.9938,1.0049 -0.49356,1.9471 2.4919,4.6934 2.05443,1.8898 4.08712,3.436 4.51711,3.436 0.42998,0 4.29359,-3.433 8.58578,-7.6289 z"
       id="path876"
       inkscape:connector-curvature="0" />
    <path
       style="fill:#57a34e"
       d="m 234.87922,1088.3088 -4.92969,-5.005 2.19934,-2.1993 2.19934,-2.1994 3.03644,2.9091 3.03645,2.9091 6.98101,-6.9275 6.98102,-6.9275 2.22617,2.2262 2.22618,2.2261 -8.95485,8.9966 c -4.92516,4.9481 -9.20614,8.9965 -9.51328,8.9965 -0.30715,0 -2.7768,-2.2522 -5.48813,-5.0049 z m 13.99164,-4.9818 c 6.26526,-6.3022 7.6815,-8.245 6.7149,-9.2116 -0.96659,-0.9666 -2.69495,0.2338 -8.1948,5.6915 l -6.96986,6.9164 -3.0251,-2.8982 c -2.34568,-2.2473 -3.29346,-2.6298 -4.21999,-1.7033 -0.92654,0.9265 -0.31799,2.0929 2.70954,5.1934 2.14744,2.1992 4.16117,3.9985 4.47495,3.9985 0.31378,0 4.14344,-3.594 8.51036,-7.9867 z"
       id="path874"
       inkscape:connector-curvature="0" />
    <path
       style="fill:#509b48"
       d="m 236.58026,1090.0161 c -4.35308,-4.4912 -4.07035,-5.942 0.32732,-1.6796 l 3.52349,3.4151 8.19772,-8.1978 c 6.49735,-6.4973 7.94201,-8.4534 6.96488,-9.4305 -0.97713,-0.9772 -2.67091,0.1942 -8.16593,5.6471 -5.93268,5.8872 -7.15751,6.6937 -8.48837,5.5892 -0.8554,-0.7099 -1.55528,-1.7408 -1.55528,-2.2908 0,-0.55 0.69988,-0.4191 1.55528,0.2908 1.33088,1.1045 2.5572,0.2965 8.49952,-5.6003 l 6.94424,-6.891 2.22617,2.2262 2.22618,2.2261 -8.95485,8.9966 c -4.92516,4.9481 -9.21345,8.9965 -9.52952,8.9965 -0.31608,0 -2.01296,-1.4839 -3.77085,-3.2976 z"
       id="path872"
       inkscape:connector-curvature="0" />
    <path
       style="fill:#4b9543"
       d="m 238.58409,1092.1137 c -1.78637,-1.7864 -1.45209,-3.2541 0.39247,-1.7233 1.38386,1.1485 2.71369,0.1801 10.15152,-7.3927 4.70748,-4.7928 8.80496,-8.4684 9.10551,-8.1678 0.54702,0.547 -16.80253,18.4838 -17.87865,18.4838 -0.31397,0 -1.11085,-0.54 -1.77085,-1.2 z"
       id="path870"
       inkscape:connector-curvature="0" />
  </g>
</svg>
