<?xml version="1.0" encoding="UTF-8" standalone="no"?>
<svg
   xmlns:dc="http://purl.org/dc/elements/1.1/"
   xmlns:cc="http://creativecommons.org/ns#"
   xmlns:rdf="http://www.w3.org/1999/02/22-rdf-syntax-ns#"
   xmlns:svg="http://www.w3.org/2000/svg"
   xmlns="http://www.w3.org/2000/svg"
   xmlns:sodipodi="http://sodipodi.sourceforge.net/DTD/sodipodi-0.dtd"
   xmlns:inkscape="http://www.inkscape.org/namespaces/inkscape"
   version="1.2"
   width="810"
   height="810"
   id="svg8"
   sodipodi:docname="wikidata-cross.svg"
   inkscape:version="0.92.3 (2405546, 2018-03-11)">
  <metadata
     id="metadata14">
    <rdf:RDF>
      <cc:Work
         rdf:about="">
        <dc:format>image/svg+xml</dc:format>
        <dc:type
           rdf:resource="http://purl.org/dc/dcmitype/StillImage" />
        <dc:title></dc:title>
      </cc:Work>
    </rdf:RDF>
  </metadata>
  <defs
     id="defs12">
    <filter
       style="color-interpolation-filters:sRGB;"
       inkscape:label="Drop Shadow"
       id="filter1110">
      <feFlood
         flood-opacity="0.498039"
         flood-color="rgb(0,0,0)"
         result="flood"
         id="feFlood1100" />
      <feComposite
         in="flood"
         in2="SourceGraphic"
         operator="in"
         result="composite1"
         id="feComposite1102" />
      <feGaussianBlur
         in="composite1"
         stdDeviation="1"
         result="blur"
         id="feGaussianBlur1104" />
      <feOffset
         dx="1"
         dy="1"
         result="offset"
         id="feOffset1106" />
      <feComposite
         in="SourceGraphic"
         in2="offset"
         operator="over"
         result="composite2"
         id="feComposite1108" />
    </filter>
    <filter
       style="color-interpolation-filters:sRGB;"
       inkscape:label="Drop Shadow"
       id="filter1812">
      <feFlood
         flood-opacity="0.498039"
         flood-color="rgb(0,0,0)"
         result="flood"
         id="feFlood1802" />
      <feComposite
         in="flood"
         in2="SourceGraphic"
         operator="in"
         result="composite1"
         id="feComposite1804" />
      <feGaussianBlur
         in="composite1"
         stdDeviation="1"
         result="blur"
         id="feGaussianBlur1806" />
      <feOffset
         dx="1"
         dy="1"
         result="offset"
         id="feOffset1808" />
      <feComposite
         in="SourceGraphic"
         in2="offset"
         operator="over"
         result="composite2"
         id="feComposite1810" />
    </filter>
  </defs>
  <sodipodi:namedview
     pagecolor="#ffffff"
     bordercolor="#666666"
     borderopacity="1"
     objecttolerance="10"
     gridtolerance="10"
     guidetolerance="10"
     inkscape:pageopacity="0"
     inkscape:pageshadow="2"
     inkscape:window-width="1280"
     inkscape:window-height="998"
     id="namedview10"
     showgrid="false"
     fit-margin-top="0"
     fit-margin-left="0"
     fit-margin-right="0"
     fit-margin-bottom="0"
     inkscape:zoom="0.21482577"
     inkscape:cx="308.06361"
     inkscape:cy="-156.41386"
     inkscape:window-x="1920"
     inkscape:window-y="0"
     inkscape:window-maximized="1"
     inkscape:current-layer="svg8" />
  <path
     d="M 0,655 H 30 V 155 H 0 Z m 60,0 h 90 V 155 H 60 Z M 180,155 v 500 h 90 V 155 Z"
     style="fill:#990000;opacity:0.3"
     id="path2"
     inkscape:connector-curvature="0" />
  <path
     d="m 720,655 h 30 V 155 h -30 z m 60,-500 v 500 h 30 V 155 Z M 300,655 h 30 V 155 h -30 z m 60,-500 v 500 h 30 V 155 Z"
     style="fill:#339966;opacity:0.3"
     id="path4"
     inkscape:connector-curvature="0" />
  <path
     d="m 420,655 h 90 V 155 h -90 z m 120,0 h 30 V 155 h -30 z m 60,-500 v 500 h 90 V 155 Z"
     style="fill:#006699;opacity:0.3"
     id="path6"
     inkscape:connector-curvature="0" />
  <g
     id="g1788"
     transform="matrix(23.383264,0,0,23.383264,-23595.888,-18698.716)"
     style="filter:url(#filter1812)">
    <path
       style="fill:#f8a5a7"
       d="m 1014.9052,827.97422 -2.882,-3.00819 3.8979,-3.99181 3.8979,-3.9918 -3.9196,-4.01408 -3.9197,-4.01407 3.2026,-3.20262 3.2026,-3.20262 4.0141,3.91964 4.0141,3.91965 4.0141,-3.91965 4.0141,-3.91964 3.2026,3.20262 3.2026,3.20262 -3.9197,4.01407 -3.9196,4.01408 3.9196,4.01408 3.9197,4.01407 -3.2026,3.20262 -3.2026,3.20262 -4.0141,-3.91964 -4.0141,-3.91965 -3.7922,3.70295 c -2.0857,2.03662 -4.0265,3.70295 -4.3129,3.70295 -0.2864,0 -1.8176,-1.35369 -3.4028,-3.0082 z"
       id="path1800"
       inkscape:connector-curvature="0" />
    <path
       style="fill:#fe7e81"
       d="m 1015.3991,827.46748 -2.3627,-2.51495 3.8913,-3.98505 3.8913,-3.98506 -3.9179,-4.01231 -3.9179,-4.0123 2.7026,-2.70266 2.7027,-2.70266 4.0123,3.91791 4.0123,3.91792 4.0123,-3.91792 4.0123,-3.91791 2.7027,2.70266 2.7026,2.70266 -3.9179,4.0123 -3.9179,4.01231 3.9179,4.01231 3.9179,4.01231 -2.7026,2.70265 -2.7027,2.70266 -4.0123,-3.91791 -4.0123,-3.91792 -3.7922,3.70295 c -2.0857,2.03662 -4.0322,3.70295 -4.3256,3.70295 -0.2935,0 -1.5968,-1.13172 -2.8962,-2.51494 z"
       id="path1798"
       inkscape:connector-curvature="0" />
    <path
       style="fill:#fc6d70"
       d="m 1015.3991,827.46748 -2.3627,-2.51495 3.8913,-3.98505 3.8913,-3.98506 -3.9179,-4.01231 -3.9179,-4.0123 2.7026,-2.70266 2.7027,-2.70266 4.0123,3.91791 4.0123,3.91792 4.0123,-3.91792 4.0123,-3.91791 2.7027,2.70266 2.7026,2.70266 -3.9179,4.0123 -3.9179,4.01231 3.9179,4.01231 3.9179,4.01231 -2.7026,2.70265 -2.7027,2.70266 -4.0123,-3.91791 -4.0123,-3.91792 -3.7922,3.70295 c -2.0857,2.03662 -4.0322,3.70295 -4.3256,3.70295 -0.2935,0 -1.5968,-1.13172 -2.8962,-2.51494 z m 9.014,-10.68123 c 0,-1.07177 0.7321,-1.80383 1.8038,-1.80383 0.9921,0 3.3546,-1.68656 5.25,-3.7479 2.9796,-3.24048 3.0326,-3.37587 0.3915,-1 -3.8005,3.4188 -7.3864,3.5039 -10.4453,0.2479 -2.1195,-2.25613 -5,-3.37113 -5,-1.93544 0,0.31051 1.35,1.70051 3,3.08889 3.8058,3.20237 3.8887,6.74924 0.2521,10.79183 -2.3759,2.64114 -2.2405,2.58814 1,-0.39145 2.0613,-1.89539 3.7479,-4.25789 3.7479,-5.25 z"
       id="path1796"
       inkscape:connector-curvature="0" />
    <path
       style="fill:#f45153"
       d="m 1015.3991,827.46748 -2.3627,-2.51495 3.7231,-3.81278 c 2.6751,-2.73963 3.5277,-4.32186 3.029,-5.6215 -0.4979,-1.29731 -0.2956,-1.67603 0.7152,-1.33941 2.628,0.87512 2.1267,3.98413 -1.195,7.41126 -2.5543,2.63536 -3.0237,3.66418 -2.0956,4.59232 0.9281,0.92814 1.9353,0.47965 4.4957,-2.00195 4.022,-3.8983 6.2419,-4.01525 9.8892,-0.52095 3.6432,3.49048 4.9827,2.15103 1.4922,-1.49225 -3.4943,-3.64726 -3.3774,-5.86716 0.521,-9.88919 2.4815,-2.56035 2.93,-3.56752 2.0019,-4.49566 -0.9281,-0.92814 -1.957,-0.45866 -4.5923,2.09563 -3.4272,3.32171 -6.5362,3.82302 -7.4113,1.19502 -0.3366,-1.01086 0.042,-1.2131 1.3394,-0.71528 1.3007,0.49911 2.8874,-0.35921 5.6488,-3.05561 l 3.84,-3.74969 2.7027,2.70266 2.7026,2.70266 -3.9179,4.0123 -3.9179,4.01231 3.9179,4.01231 3.9179,4.01231 -2.7026,2.70265 -2.7027,2.70266 -4.0123,-3.91791 -4.0123,-3.91792 -3.7922,3.70295 c -2.0857,2.03662 -4.0322,3.70295 -4.3256,3.70295 -0.2935,0 -1.5968,-1.13172 -2.8962,-2.51494 z m 9.014,-10.48506 c 0,-1.33333 0.6667,-2 2,-2 1.3333,0 2,0.66667 2,2 0,1.33333 -0.6667,2 -2,2 -1.3333,0 -2,-0.66667 -2,-2 z"
       id="path1794"
       inkscape:connector-curvature="0" />
    <path
       style="fill:#ed3d40"
       d="m 1030.9231,826.99285 c -3.4454,-3.59619 -2.5613,-5.3467 1.0072,-1.99428 1.9202,1.80394 2.7848,2.08187 3.6828,1.18385 0.898,-0.89802 0.6201,-1.7626 -1.1839,-3.68281 -3.5119,-3.73833 -1.4638,-4.42642 2.2176,-0.74502 l 3.1696,3.16961 -2.376,2.52911 c -1.3067,1.39101 -2.6633,2.52911 -3.0145,2.52911 -0.3512,0 -1.9275,-1.34531 -3.5028,-2.98957 z"
       id="path1792"
       inkscape:connector-curvature="0" />
    <path
       style="fill:#ec393b"
       d="m 1033.088,829.23242 c -0.2437,-0.4125 0.8274,-1.98881 2.3802,-3.50291 3.4725,-3.38601 5.1957,-1.70737 1.8754,1.82694 -2.3618,2.51402 -3.4964,2.96086 -4.2556,1.67597 z"
       id="path1790"
       inkscape:connector-curvature="0" />
  </g>
</svg>
