<?xml version="1.0" encoding="utf-8"?>
<!-- Generator: Adobe Illustrator 16.0.3, SVG Export Plug-In . SVG Version: 6.00 Build 0)  -->
<!DOCTYPE svg PUBLIC "-//W3C//DTD SVG 1.0//EN" "http://www.w3.org/TR/2001/REC-SVG-20010904/DTD/svg10.dtd">
<svg version="1.0" id="Layer_1" xmlns="http://www.w3.org/2000/svg" xmlns:xlink="http://www.w3.org/1999/xlink" x="0px" y="0px"
	 width="54.563px" height="50.563px" viewBox="0 0 54.563 50.563" enable-background="new 0 0 54.563 50.563" xml:space="preserve">
<path fill-rule="evenodd" clip-rule="evenodd" fill="#CF3A46" d="M24.53,25.541c0.002,4.293,1.767,5.541,5.633,4.017
	c0.342-0.134,0.8-0.356,1.177-0.019c0.346,0.483-0.042,1.039-0.312,1.309c-2.063,2.068-7.216,0.76-7.858-2.125
	c-0.414-1.86-0.485-3.912-0.178-5.792c0.545-3.333,4.767-4.946,7.591-3.057c0.373,0.25,0.953,0.809,0.677,1.313
	c-0.258,0.376-0.749,0.372-1.067,0.274C25.764,20.111,24.526,20.988,24.53,25.541z"/>
<g>
	<path fill-rule="evenodd" clip-rule="evenodd" d="M22.07,16.063c0-0.451-0.366-0.816-0.816-0.816h-4.318
		c-0.451,0-0.816,0.365-0.816,0.816l0,0c0,0.451,0.365,0.816,0.816,0.816h4.318C21.705,16.88,22.07,16.515,22.07,16.063
		L22.07,16.063z"/>
	<path fill-rule="evenodd" clip-rule="evenodd" d="M16.936,35.757c0.451,0,0.816-0.365,0.816-0.816V16.063
		c0-0.451-0.366-0.816-0.816-0.816l0,0c-0.451,0-0.816,0.365-0.816,0.816V34.94C16.12,35.392,16.485,35.757,16.936,35.757
		L16.936,35.757z"/>
	<path fill-rule="evenodd" clip-rule="evenodd" d="M22.07,34.94c0-0.45-0.366-0.815-0.816-0.815h-4.318
		c-0.451,0-0.816,0.365-0.816,0.815l0,0c0,0.451,0.365,0.816,0.816,0.816h4.318C21.705,35.757,22.07,35.392,22.07,34.94L22.07,34.94
		z"/>
</g>
<g>
	<path fill-rule="evenodd" clip-rule="evenodd" d="M32.369,34.94c0,0.451,0.364,0.816,0.815,0.816h4.318
		c0.45,0,0.816-0.365,0.816-0.816l0,0c0-0.45-0.366-0.815-0.816-0.815h-4.318C32.733,34.125,32.369,34.49,32.369,34.94L32.369,34.94
		z"/>
	<path fill-rule="evenodd" clip-rule="evenodd" d="M37.503,15.248c-0.451,0-0.816,0.365-0.816,0.816V34.94
		c0,0.451,0.365,0.816,0.816,0.816l0,0c0.45,0,0.816-0.365,0.816-0.816V16.063C38.319,15.613,37.953,15.248,37.503,15.248
		L37.503,15.248z"/>
	<path fill-rule="evenodd" clip-rule="evenodd" d="M32.369,16.063c0,0.451,0.364,0.816,0.815,0.816h4.318
		c0.45,0,0.816-0.365,0.816-0.816l0,0c0-0.451-0.366-0.816-0.816-0.816h-4.318C32.733,15.248,32.369,15.613,32.369,16.063
		L32.369,16.063z"/>
</g>
</svg>
