<?xml version="1.0" encoding="UTF-8" standalone="no"?>
<!DOCTYPE svg PUBLIC "-//W3C//DTD SVG 1.1//EN" "http://www.w3.org/Graphics/SVG/1.1/DTD/svg11.dtd">
<svg version="1.0" id="Layer_1" xmlns="http://www.w3.org/2000/svg" xmlns:xlink="http://www.w3.org/1999/xlink" x="0px" y="0px"
	 width="54.563px" height="50.563px" viewBox="0 0 54.563 50.563" enable-background="new 0 0 54.563 50.563" xml:space="preserve">
	<path fill-rule="evenodd" clip-rule="evenodd" fill="#CF3A46" d="M28.234,24.734l0,6.164c0,0.428 -0.101,0.75 -0.304,0.969c-0.203,0.219 -0.461,0.328 -0.774,0.328c-0.312,0 -0.566,-0.112 -0.761,-0.336c-0.196,-0.224 -0.293,-0.544 -0.293,-0.961l-0,-6.101c-0,-0.422 0.097,-0.74 0.293,-0.953c0.195,-0.214 0.449,-0.321 0.761,-0.321c0.313,0 0.571,0.107 0.774,0.321c0.203,0.213 0.304,0.51 0.304,0.89Zm-1.054,-2.203c-0.297,0 -0.551,-0.091 -0.762,-0.273c-0.211,-0.182 -0.316,-0.44 -0.316,-0.774c-0,-0.302 0.108,-0.55 0.324,-0.746c0.216,-0.195 0.467,-0.293 0.754,-0.293c0.276,0 0.521,0.089 0.734,0.266c0.214,0.177 0.32,0.435 0.32,0.773c0,0.328 -0.104,0.585 -0.312,0.77c-0.208,0.185 -0.456,0.277 -0.742,0.277Z"/>
<g fill="currentColor">
	<path fill-rule="evenodd" clip-rule="evenodd" d="M22.07,16.063c0-0.451-0.366-0.816-0.816-0.816h-4.318
		c-0.451,0-0.816,0.365-0.816,0.816l0,0c0,0.451,0.365,0.816,0.816,0.816h4.318C21.705,16.88,22.07,16.515,22.07,16.063
		L22.07,16.063z"/>
	<path fill-rule="evenodd" clip-rule="evenodd" d="M16.936,35.757c0.451,0,0.816-0.365,0.816-0.816V16.063
		c0-0.451-0.366-0.816-0.816-0.816l0,0c-0.451,0-0.816,0.365-0.816,0.816V34.94C16.12,35.392,16.485,35.757,16.936,35.757
		L16.936,35.757z"/>
	<path fill-rule="evenodd" clip-rule="evenodd" d="M22.07,34.94c0-0.45-0.366-0.815-0.816-0.815h-4.318
		c-0.451,0-0.816,0.365-0.816,0.815l0,0c0,0.451,0.365,0.816,0.816,0.816h4.318C21.705,35.757,22.07,35.392,22.07,34.94L22.07,34.94
		z"/>
</g>
<g fill="currentColor">
	<path fill-rule="evenodd" clip-rule="evenodd" d="M32.369,34.94c0,0.451,0.364,0.816,0.815,0.816h4.318
		c0.45,0,0.816-0.365,0.816-0.816l0,0c0-0.45-0.366-0.815-0.816-0.815h-4.318C32.733,34.125,32.369,34.49,32.369,34.94L32.369,34.94
		z"/>
	<path fill-rule="evenodd" clip-rule="evenodd" d="M37.503,15.248c-0.451,0-0.816,0.365-0.816,0.816V34.94
		c0,0.451,0.365,0.816,0.816,0.816l0,0c0.45,0,0.816-0.365,0.816-0.816V16.063C38.319,15.613,37.953,15.248,37.503,15.248
		L37.503,15.248z"/>
	<path fill-rule="evenodd" clip-rule="evenodd" d="M32.369,16.063c0,0.451,0.364,0.816,0.815,0.816h4.318
		c0.45,0,0.816-0.365,0.816-0.816l0,0c0-0.451-0.366-0.816-0.816-0.816h-4.318C32.733,15.248,32.369,15.613,32.369,16.063
		L32.369,16.063z"/>
</g>
</svg>