<?xml version="1.0" encoding="UTF-8" standalone="no"?>
<!-- Generator: Adobe Illustrator 16.0.3, SVG Export Plug-In . SVG Version: 6.00 Build 0)  -->
<svg
   version="1.0"
   id="Layer_1"
   x="0px"
   y="0px"
   width="54.563px"
   height="50.563px"
   viewBox="0 0 54.563 50.563"
   enable-background="new 0 0 54.563 50.563"
   xml:space="preserve"
	xmlns="http://www.w3.org/2000/svg">
	<path
   id="right-bracket"
   fill="context-fill"
   d="M 33.183594 15.246094 C 32.732594 15.247094 32.369141 15.6125 32.369141 16.0625 C 32.369141 16.5135 32.732594 16.878906 33.183594 16.878906 L 36.6875 16.878906 L 36.6875 34.125 L 33.183594 34.125 C 32.732594 34.125 32.369141 34.489454 32.369141 34.939453 C 32.369141 35.390453 32.732594 35.755859 33.183594 35.755859 L 37.501953 35.755859 L 37.503906 35.755859 L 37.505859 35.755859 C 37.560744 35.755601 37.616126 35.750844 37.667969 35.740234 C 37.773414 35.7184 37.872653 35.675476 37.958984 35.617188 C 38.001914 35.588084 38.041554 35.554119 38.078125 35.517578 L 38.080078 35.517578 C 38.087913 35.50975 38.09405 35.500327 38.101562 35.492188 C 38.121577 35.470445 38.140617 35.447652 38.158203 35.423828 C 38.17029 35.407498 38.18054 35.39028 38.191406 35.373047 C 38.237477 35.299753 38.272027 35.219358 38.292969 35.132812 C 38.297375 35.114681 38.301516 35.096709 38.304688 35.078125 C 38.312323 35.033295 38.318359 34.986469 38.318359 34.939453 L 38.318359 16.0625 C 38.318359 16.015485 38.312323 15.970611 38.304688 15.925781 C 38.301505 15.907126 38.2974 15.889295 38.292969 15.871094 C 38.282515 15.827892 38.27093 15.786299 38.253906 15.746094 C 38.236826 15.705757 38.214479 15.667566 38.191406 15.630859 C 38.18206 15.616054 38.172362 15.602034 38.162109 15.587891 C 38.141206 15.558901 38.120141 15.529866 38.095703 15.503906 C 38.089982 15.497858 38.084027 15.492199 38.078125 15.486328 C 38.073173 15.48138 38.067578 15.477477 38.0625 15.472656 C 38.034722 15.446286 38.005873 15.420723 37.974609 15.398438 C 37.969387 15.394715 37.964297 15.39032 37.958984 15.386719 C 37.958509 15.386398 37.957507 15.387039 37.957031 15.386719 C 37.953116 15.384075 37.949275 15.381483 37.945312 15.378906 C 37.864093 15.326095 37.773437 15.286871 37.675781 15.265625 C 37.673139 15.26505 37.67062 15.264221 37.667969 15.263672 C 37.66609 15.263288 37.663992 15.264043 37.662109 15.263672 C 37.610216 15.253311 37.55686 15.246094 37.501953 15.246094 L 33.183594 15.246094 z " />
	<path
   fill-rule="evenodd"
   clip-rule="evenodd"
   fill="#CF3A46"
   d="M28.234,24.734l0,6.164c0,0.428 -0.101,0.75 -0.304,0.969c-0.203,0.219 -0.461,0.328 -0.774,0.328c-0.312,0 -0.566,-0.112 -0.761,-0.336c-0.196,-0.224 -0.293,-0.544 -0.293,-0.961l-0,-6.101c-0,-0.422 0.097,-0.74 0.293,-0.953c0.195,-0.214 0.449,-0.321 0.761,-0.321c0.313,0 0.571,0.107 0.774,0.321c0.203,0.213 0.304,0.51 0.304,0.89Zm-1.054,-2.203c-0.297,0 -0.551,-0.091 -0.762,-0.273c-0.211,-0.182 -0.316,-0.44 -0.316,-0.774c-0,-0.302 0.108,-0.55 0.324,-0.746c0.216,-0.195 0.467,-0.293 0.754,-0.293c0.276,0 0.521,0.089 0.734,0.266c0.214,0.177 0.32,0.435 0.32,0.773c0,0.328 -0.104,0.585 -0.312,0.77c-0.208,0.185 -0.456,0.277 -0.742,0.277Z"
   id="letter" />
	<path
   id="left-bracket"
   fill="context-fill"
   d="m 16.935547,15.246094 c -0.451,0 -0.816406,0.365406 -0.816406,0.816406 v 18.876953 c 0,0.05638 0.0067,0.112873 0.01758,0.166016 0.01086,0.05314 0.02624,0.103523 0.04687,0.152343 0.02063,0.04882 0.04686,0.09526 0.07617,0.138672 0.02931,0.04341 0.0627,0.08419 0.09961,0.121094 0.03691,0.03691 0.07769,0.0703 0.121094,0.09961 0.03697,0.02496 0.07624,0.04573 0.117187,0.06445 0.0173,0.0079 0.0348,0.01474 0.05273,0.02148 0.03931,0.01472 0.07916,0.02854 0.121093,0.03711 0.04325,0.0088 0.08736,0.01196 0.132813,0.01367 0.01066,4.12e-4 0.02049,0.0039 0.03125,0.0039 0.006,0 0.01157,-0.0018 0.01758,-0.002 h 4.300781 c 0.451,0.001 0.816406,-0.364406 0.816406,-0.816406 0,-0.449999 -0.366406,-0.814453 -0.816406,-0.814453 H 17.751953 V 16.878906 h 3.501953 c 0.451,10e-4 0.816406,-0.364406 0.816406,-0.816406 0,-0.451 -0.366406,-0.816406 -0.816406,-0.816406 z" />
</svg>
