<?xml version="1.0" encoding="utf-8"?>
<!-- Generator: Adobe Illustrator 16.0.3, SVG Export Plug-In . SVG Version: 6.00 Build 0)  -->
<!DOCTYPE svg PUBLIC "-//W3C//DTD SVG 1.0//EN" "http://www.w3.org/TR/2001/REC-SVG-20010904/DTD/svg10.dtd">
<svg version="1.0" id="Layer_1" xmlns="http://www.w3.org/2000/svg" xmlns:xlink="http://www.w3.org/1999/xlink" x="0px" y="0px"
	 width="54.563px" height="50.563px" viewBox="0 0 54.563 50.563" enable-background="new 0 0 54.563 50.563" xml:space="preserve">
<path fill-rule="evenodd" clip-rule="evenodd" fill="#CF3A46" d="M21.555,25.582c0.006,9.042,3.721,11.668,11.864,8.461
	c0.721-0.283,1.686-0.751,2.479-0.039c0.727,1.018-0.09,2.187-0.659,2.757c-4.342,4.354-15.196,1.6-16.547-4.476
	c-0.871-3.919-1.021-8.24-0.374-12.198c1.147-7.021,10.038-10.416,15.986-6.437c0.786,0.526,2.008,1.704,1.425,2.767
	c-0.542,0.792-1.578,0.781-2.247,0.578C24.155,14.148,21.548,15.996,21.555,25.582z"/>
<g>
	<path fill-rule="evenodd" clip-rule="evenodd" d="M16.375,5.625c0-0.949-0.77-1.719-1.719-1.719H5.563
		c-0.949,0-1.719,0.77-1.719,1.719l0,0c0,0.949,0.77,1.719,1.719,1.719h9.094C15.605,7.344,16.375,6.574,16.375,5.625L16.375,5.625z
		"/>
	<path fill-rule="evenodd" clip-rule="evenodd" d="M5.563,47.099c0.949,0,1.719-0.77,1.719-1.719V5.625
		c0-0.949-0.77-1.719-1.719-1.719l0,0c-0.949,0-1.719,0.77-1.719,1.719V45.38C3.844,46.329,4.613,47.099,5.563,47.099L5.563,47.099z
		"/>
	<path fill-rule="evenodd" clip-rule="evenodd" d="M16.375,45.38c0-0.949-0.77-1.719-1.719-1.719H5.563
		c-0.949,0-1.719,0.77-1.719,1.719l0,0c0,0.949,0.77,1.719,1.719,1.719h9.094C15.605,47.099,16.375,46.329,16.375,45.38
		L16.375,45.38z"/>
</g>
<g>
	<path fill-rule="evenodd" clip-rule="evenodd" d="M38.063,45.38c0,0.949,0.77,1.719,1.719,1.719h9.094
		c0.949,0,1.719-0.77,1.719-1.719l0,0c0-0.949-0.77-1.719-1.719-1.719h-9.094C38.833,43.661,38.063,44.431,38.063,45.38
		L38.063,45.38z"/>
	<path fill-rule="evenodd" clip-rule="evenodd" d="M48.876,3.906c-0.949,0-1.719,0.77-1.719,1.719V45.38
		c0,0.949,0.77,1.719,1.719,1.719l0,0c0.949,0,1.719-0.77,1.719-1.719V5.625C50.595,4.676,49.825,3.906,48.876,3.906L48.876,3.906z"
		/>
	<path fill-rule="evenodd" clip-rule="evenodd" d="M38.063,5.625c0,0.949,0.77,1.719,1.719,1.719h9.094
		c0.949,0,1.719-0.77,1.719-1.719l0,0c0-0.949-0.77-1.719-1.719-1.719h-9.094C38.833,3.906,38.063,4.676,38.063,5.625L38.063,5.625z
		"/>
</g>
</svg>
